# xmcd
#
# Track frame offsets: 
#        150
#        1668
#        13363
#        15692
#        25392
#        33561
#        36497
#        48941
#        49938
#        59185
#        61156
#        69914
#        75916
#        88282
#        90017
#        104080
#        106800
#        117367
#        122173
#        129749
#        132353
#        144840
#        155463
#        157515
#        160967
#        164682
#        176386
#        183136
#        195024
#        205166
#        217779
#        226929
#        235885
#        247932
#        262219
#        273164
#        280937
#        291754
#        314404
#
# Disc length: 4297 seconds
#
# Revision: 0
# Processed by: cddbd v1.4PL0 Copyright (c) Steve Scherf et al.
# Submitted via: ExactAudioCopy v0.90b3
#
DISCID=1410c727
DTITLE=Colin Buchanan - God is Great
DYEAR=2002
DGENRE=Contemporary Christian
TTITLE0=Intro
TTITLE1=God is Great
TTITLE2=Prove it #1 - Where is God
TTITLE3=God is Everywhere
TTITLE4=He's Got Australia in His Hands
TTITLE5=Prove it #2 - Can You See God
TTITLE6=People Change
TTITLE7=Verse - Only The Lord Knows
TTITLE8=Who's The King Of The Jungle
TTITLE9=Prove it #3 - Does God know Everything
TTITLE10=A Bible Verse To Remember - Lamentations 3v22-23
TTITLE11=God Our Father #2
TTITLE12=Jesus Is No Fairytale
TTITLE13=Verse - If the Outlook is Bad
TTITLE14=The Lord Is King (featuring Steve Grace)
TTITLE15=Prove it #4 - Does God Know Everything About Me
TTITLE16=The Crocodile Song
TTITLE17=A Bible Verse To Remember - Ephesians 4v32
TTITLE18=A Bible Verse To Remember - James 4v7
TTITLE19=Verse - It's A Very Good Thing
TTITLE20=Rejoice In The Lord and Alleluia, Alleluia
TTITLE21=The Lord Don't Change At All
TTITLE22=Prove it #5 - If I Sin, Can God Be My Friend
TTITLE23=Jesus Loves Me
TTITLE24=Verse - Don't Be Afraid
TTITLE25=God's Love Is Strong Love
TTITLE26=A Bible Verse To Remember - James 4v8
TTITLE27=10,9,8 God is Great Instrumental
TTITLE28=God is Everywhere Instrumental
TTITLE29=People Change Instrumental
TTITLE30=Who's The King Of The Jungle Instrumental
TTITLE31=Lamentations 3v22-23 Instrumental
TTITLE32=Jesus Is No Fairytale Instrumental
TTITLE33=The Lord Is King Instrumental
TTITLE34=The Crocodile Song Instrumental
TTITLE35=James 4v7 Instrumental
TTITLE36=The Lord Don't Change At All Instrumental
TTITLE37=God's Love Is Strong Love
TTITLE38=10,9,8 God is Great Longer Version Instrumental
EXTD=
EXTT0=
EXTT1=
EXTT2=
EXTT3=
EXTT4=
EXTT5=
EXTT6=
EXTT7=
EXTT8=
EXTT9=
EXTT10=
EXTT11=
EXTT12=
EXTT13=
EXTT14=
EXTT15=
EXTT16=
EXTT17=
EXTT18=
EXTT19=
EXTT20=
EXTT21=
EXTT22=
EXTT23=
EXTT24=
EXTT25=
EXTT26=
EXTT27=
EXTT28=
EXTT29=
EXTT30=
EXTT31=
EXTT32=
EXTT33=
EXTT34=
EXTT35=
EXTT36=
EXTT37=
EXTT38=
PLAYORDER=
